<?xml version="1.0" encoding="utf-8"?>
<!-- Generator: Adobe Illustrator 23.0.2, SVG Export Plug-In . SVG Version: 6.00 Build 0)  -->
<svg version="1.1" id="Calque_1" xmlns="http://www.w3.org/2000/svg" xmlns:xlink="http://www.w3.org/1999/xlink" x="0px" y="0px"
	 viewBox="0 0 1254 353" style="enable-background:new 0 0 1254 353;" xml:space="preserve">
<style type="text/css">
	.st0{fill:#FEFEFE;}
	.st1{fill:#FE503F;}
	.st2{fill:#2D333A;}
	.st3{fill:#2D3339;}
	.st4{fill:#FCFCFC;}
	.st5{fill:#2E333A;}
	.st6{fill:#FE5444;}
	.st7{fill:#FEFBFB;}
	.st8{fill:#FE5140;}
	.st9{fill:#FCFCFD;}
	.st10{fill:#FDFDFD;}
</style>
<g>
	<g>
		<path class="st0" d="M538,354c-34,0-68,0-102,0c0.8-0.3,1.6-0.8,2.5-1c19-3.3,35.8-11.8,51.8-22.5c-1.2-2.7-2.3-5-3.5-7.5
			c-1.4,0.6-2.4,1-3.5,1.4c-16,5.9-32.2,10.7-49.5,10.4c-14.9-0.3-25.4-7.6-29-22c-2.6-10.5-3-21.5-4.5-32.6
			c2.6-0.3,3.8-0.4,4.9-0.5c17.6-1.3,35.3-2.1,52.8-4c8.5-0.9,16.8-3.6,25-6.1c2.6-0.8,5.7-2.5,5-6.5c-2.7-15.4-7.9-29.7-20.2-40.2
			c-27.2-23.2-75.4-10.1-88.7,24.3c-8.5,22.1-8.6,45-3.1,67.8c4.8,19.6,16.3,33.2,36.9,37.6c0.7,0.1,1.3,0.7,2,1.1
			c-138,0-276,0-414,0c0-10,0-20,0-30c0.6,1.5,1.3,2.9,1.9,4.4c3.2,8,8.5,14,17.3,17.9c-1.9-6.4-3.5-12.1-5.2-17.7
			c-4.6-15.2-9.3-30.4-14-45.5c0-63,0-126,0-189c0.6,1.3,1.4,2.6,1.8,3.9c14.1,49.2,28.3,98.4,42.2,147.8
			c5.6,20.1,10.4,40.5,15.8,61.8c0.9-2.6,1.6-4.2,2.1-5.9c19.5-58.2,39-116.4,58.4-174.6c1-2.9,2.2-4.3,5.6-4.1
			c7.7,0.3,15.3,0.2,23,0c2.9-0.1,4.1,1,4.9,3.6c19.2,56.9,38.6,113.7,57.8,170.6c1,3,1.9,6.1,2.8,9.2c1.5-1.8,2.1-3.4,2.6-5.1
			c11.3-41,22.6-82.1,34-123.1c7.6-27.6,15.2-55.2,22.9-82.7c0.5-1.6,2.3-4,3.6-4.1c9.6-0.3,19.3-0.2,29.4-0.2
			c-24.9,86.1-49.6,171.8-74.5,258c2.3,0,3.8,0,5.3,0c26.8,0,53.7,0,80.5,0c20.5,0,33.7-13.4,33.7-33.8c0-74.7,0-149.3,0-224
			c0-19.5,0.1-39,0-58.5c-0.1-14.4-9.1-26.4-22.9-30.5c-1-0.3-2-0.8-3-1.2c309.3,0,618.7,0,928,0c0,70.3,0,140.7,0,211
			c-19.1-1.5-35.1,3.9-45.7,21.1c-0.5,0.9-1.5,1.4-2.7,2.6c-1.3-7.3-2.6-13.9-3.8-20.4c-7.6,0-14.9,0-22.6,0c0,7.8,0,15.5,0,23.1
			c-0.1,32.3-0.1,64.5-0.2,96.8c-3.9,0.6-7.8,1.3-11.8,1.7c-6.6,0.8-10.3-1.3-12.1-7.6c-1.2-4.1-1.9-8.5-2-12.7
			c-0.2-21-0.1-42-0.2-63c0-5.6-0.2-11.3-1-16.9c-1.9-13.6-9.9-21.6-23.2-23.7c-24.3-3.7-46,5-68.2,13.6c1.7,4.5,3.3,8.5,4.9,12.5
			c2.5-1,4.7-1.8,6.9-2.6c11.5-3.9,23.1-7.5,35.5-7.3c9.1,0.1,15.7,3.8,16.7,11.3c1.6,11.4,1.5,23,2.2,35c-5.3,0-9.3-0.3-13.3,0.1
			c-12.6,1.1-25.3,1.5-37.6,3.9c-15.7,3.1-25.6,13.3-27.2,29.7c-0.6,6.2-0.3,12.7,0.7,18.9c2,12.4,9.3,20.6,21.5,24.3
			c1.5,0.5,2.9,1.2,4.4,1.8c-33,0-66,0-99,0c6.9-2.6,13.8-5,20.5-7.9c4.3-1.9,8.2-4.7,12.6-7.3c2.1,3.5,4,6.8,6.1,10
			c0.6,1,1.9,2.1,2.9,2.2c5.3,0.2,10.5,0.1,15.9,0.1c0-76.9,0-153.3,0-230c-7.5,1.9-14.7,4-22,5.5c-3.5,0.7-4.5,2.1-4.4,5.6
			c0.2,23.6,0.1,47.3,0.1,70.9c0,3.6,0,7.2,0,11.2c-2.6-0.3-5.1-0.6-7.5-0.8c-8.6-0.5-17.3-1.6-25.9-1.4
			c-28.4,0.7-50.4,17-58.9,43.4c-5.5,17-6.1,34.4-2.6,51.8c4.7,23.7,17.7,40.2,42.4,45.4c0.7,0.1,1.3,0.8,1.9,1.1
			c-41.7,0-83.3,0-125,0c8.3-3.6,16.6-7,24.8-10.8c3.7-1.8,7-4.4,10.7-6.8c0.6,1.3,1.1,2.4,1.5,3.4c4.4,10.3,9.9,14.3,20.9,12.9
			c7.2-0.9,14.3-3.9,21.2-6.6c7-2.8,7.2-3.7,5.3-11.2c-3.3,0.6-6.5,1.4-9.8,1.8c-7.1,1-10.9-1.2-12.7-8.2
			c-1.3-5.3-1.9-10.8-1.9-16.3c-0.2-22.5,0.2-45-0.2-67.5c-0.4-22.2-11.3-32.6-33.3-32.8c-20.8-0.2-39.8,6.7-59.1,14.5
			c1.7,4.3,3.3,8.4,4.9,12.4c2.6-1,4.6-1.8,6.6-2.5c11.7-4,23.5-7.7,36-7.4c10.4,0.2,16.3,4.7,17.3,14.9s0.2,20.5,0.2,31
			c-1.5,0-3-0.1-4.5,0c-13.6,0.9-27.4,1-40.8,3.1c-22,3.4-32.5,16.4-32,38.6c0.2,7.7,2.4,15.4,3.8,24.1c-4.6-2.2-10.2-3.7-14.1-7
			c-6.9-5.7-13.8-11.9-18.8-19.1c-11-15.8-20.8-32.5-31-48.8c-0.7-1.2-1.3-2.5-2.1-3.9c2.7-1.2,4.9-2.2,7.2-3.3
			c13.1-6.5,23.4-15.7,29.7-29.2c17.6-38.3-0.7-75.1-41.9-81.5c-16.8-2.6-34.2-1.4-51.3-1.5c-9.2,0-18.5,0.9-27.8,1.4
			c0,67.9,0,135.2,0,202.6c9.3,0,18.3,0,27.7,0c0-28.6,0-56.9,0-85.6c8.4,0,16.6,0.2,24.7-0.1c3-0.1,4.4,1,5.8,3.5
			c6.3,11.7,12.5,23.5,19.3,35c6.8,11.6,13.9,23.1,21.6,34.1c5.9,8.5,14.2,14.6,24.9,14.8c9.9,0.2,19.8-1.1,29.7-2.1
			c1.5-0.2,2.8-2.2,3.9-3.2c5.1,2.2,10.5,4.6,15.9,7c-82.3,0-164.7,0-247,0c0.8-0.3,1.6-0.9,2.5-1c25-4.5,41.9-18.5,49.8-42.8
			c5.4-16.5,5.9-33.3,2.9-50.3c-2.4-13.8-7.9-26.1-18.8-35.4c-17.6-15.1-45.3-16.7-67.4-4c-2.9,1.7-5.8,3.5-9.2,5.6
			c0-35.4,0-70.1,0-105c-7.5,1.9-14.5,4-21.7,5.3c-4.2,0.8-5,2.7-5,6.7c0.1,69.3,0.1,138.6,0.1,207.9c0,0.8-0.3,1.8,0.1,2.5
			c0.8,1.3,1.7,3.2,2.9,3.6c5.8,1.6,11.6,2.8,17.5,4C527.1,352.2,532.5,353,538,354z M126.4,193.2c-17.3,51.5-34.7,103.4-52.2,155.6
			c35.6,0,70.5,0,105.9,0C162.1,296.5,144.2,244.5,126.4,193.2z"/>
		<path class="st1" d="M327,1c1,0.4,2,0.9,3,1.2c13.8,4.1,22.9,16,22.9,30.5c0.1,19.5,0,39,0,58.5c0,74.7,0,149.3,0,224
			c0,20.5-13.3,33.8-33.7,33.8c-26.8,0-53.7,0-80.5,0c-1.5,0-3,0-5.3,0c24.9-86.2,49.6-171.9,74.5-258c-10.1,0-19.8-0.2-29.4,0.2
			c-1.3,0-3.1,2.4-3.6,4.1c-7.7,27.5-15.3,55.1-22.9,82.7c-11.3,41-22.6,82.1-34,123.1c-0.5,1.7-1.1,3.3-2.6,5.1
			c-0.9-3.1-1.8-6.1-2.8-9.2c-19.3-56.9-38.6-113.7-57.8-170.6c-0.9-2.6-2.1-3.6-4.9-3.6c-7.7,0.2-15.3,0.3-23,0
			c-3.3-0.1-4.6,1.2-5.6,4.1c-19.4,58.2-38.9,116.4-58.4,174.6c-0.6,1.7-1.2,3.3-2.1,5.9c-5.4-21.3-10.2-41.7-15.8-61.8
			C31.1,196.4,16.9,147.2,2.8,97.9C2.4,96.6,1.6,95.3,1,94c0-23,0-46,0-69c2-3.6,3.7-7.2,5.9-10.6C11.6,7,19.2,3.8,27,1
			C127,1,227,1,327,1z"/>
		<path class="st2" d="M815,354c-5.4-2.4-10.8-4.7-15.9-7c-1.1,1-2.4,3.1-3.9,3.2c-9.9,1-19.8,2.3-29.7,2.1
			c-10.7-0.2-19-6.3-24.9-14.8c-7.6-11.1-14.7-22.5-21.6-34.1c-6.8-11.5-13-23.2-19.3-35c-1.3-2.5-2.8-3.6-5.8-3.5
			c-8.1,0.2-16.2,0.1-24.7,0.1c0,28.7,0,57,0,85.6c-9.4,0-18.4,0-27.7,0c0-67.4,0-134.7,0-202.6c9.3-0.5,18.5-1.4,27.8-1.4
			c17.1,0.1,34.5-1.1,51.3,1.5c41.2,6.3,59.6,43.1,41.9,81.5c-6.2,13.5-16.6,22.7-29.7,29.2c-2.2,1.1-4.5,2.1-7.2,3.3
			c0.7,1.4,1.3,2.7,2.1,3.9c10.3,16.3,20.1,33,31,48.8c5,7.3,12,13.4,18.8,19.1c4,3.3,9.5,4.8,14.1,7c-1.4-8.7-3.6-16.4-3.8-24.1
			c-0.5-22.3,10-35.2,32-38.6c13.4-2.1,27.2-2.2,40.8-3.1c1.5-0.1,3,0,4.5,0c0-10.6,0.8-20.9-0.2-31c-1-10.2-6.9-14.7-17.3-14.9
			c-12.5-0.3-24.3,3.4-36,7.4c-2,0.7-4,1.5-6.6,2.5c-1.6-4.1-3.2-8.1-4.9-12.4c19.3-7.8,38.3-14.7,59.1-14.5
			c22,0.2,32.9,10.6,33.3,32.8c0.4,22.5,0,45,0.2,67.5c0.1,5.4,0.6,11,1.9,16.3c1.7,7,5.6,9.1,12.7,8.2c3.3-0.5,6.5-1.2,9.8-1.8
			c1.9,7.5,1.8,8.4-5.3,11.2c-6.9,2.7-14,5.6-21.2,6.6c-11,1.4-16.5-2.7-20.9-12.9c-0.4-1-0.9-2.1-1.5-3.4c-3.7,2.4-7,5-10.7,6.8
			c-8.1,3.9-16.5,7.2-24.8,10.8C827,354,821,354,815,354z M669.4,251c16.9,0,33.4,0.2,49.4-5c9.2-3,15.6-9,17-18.5
			c1.6-10.9,2.5-22.2,2-33.2c-0.7-15.7-10.6-26.9-25.8-31.4c-14-4.1-28.2-3.4-42.7-1.7C669.4,191.2,669.4,220.8,669.4,251z
			 M866.8,286c-14.9,0.1-28.1,0.6-40.9,5c-5.2,1.7-9.2,4.8-9.6,10.3c-0.6,7.7-1,15.6,0.1,23.2c1.2,8.7,6.9,12.5,15.9,12.5
			c11.2,0,21.7-2.6,31.5-8c1.3-0.7,2.9-2.5,3-3.8C866.9,312.3,866.8,299.4,866.8,286z"/>
		<path class="st2" d="M538,354c-5.5-1-10.9-1.8-16.4-2.9c-5.9-1.2-11.7-2.4-17.5-4c-1.2-0.3-2.1-2.2-2.9-3.6
			c-0.4-0.6-0.1-1.6-0.1-2.5c0-69.3,0-138.6-0.1-207.9c0-4,0.8-5.9,5-6.7c7.2-1.4,14.2-3.5,21.7-5.3c0,34.9,0,69.6,0,105
			c3.4-2.1,6.3-3.9,9.2-5.6c22.1-12.7,49.7-11.2,67.4,4c10.9,9.3,16.3,21.6,18.8,35.4c3,17,2.5,33.9-2.9,50.3
			c-7.9,24.3-24.8,38.3-49.8,42.8c-0.9,0.2-1.7,0.7-2.5,1C558,354,548,354,538,354z M528.3,336.9c14.7,2.2,29.1,3.1,43.5,0.2
			c8.4-1.7,14.6-5.9,17.1-14.1c2.7-8.9,5.5-17.9,6.5-27c1.7-15.2,2-30.6-4.3-45.2c-4.8-11.3-13-18.2-25.3-20.1
			c-13.1-2-25.4,1-37.5,5.6C528.3,269.7,528.3,303,528.3,336.9z"/>
		<path class="st3" d="M958,354c-0.6-0.4-1.2-1-1.9-1.1c-24.7-5.3-37.7-21.7-42.4-45.4c-3.5-17.4-2.9-34.8,2.6-51.8
			c8.5-26.5,30.4-42.7,58.9-43.4c8.6-0.2,17.3,0.9,25.9,1.4c2.5,0.2,4.9,0.5,7.5,0.8c0-4,0-7.6,0-11.2c0-23.6,0.1-47.3-0.1-70.9
			c0-3.5,1-4.9,4.4-5.6c7.3-1.5,14.5-3.6,22-5.5c0,76.7,0,153.1,0,230c-5.3,0-10.6,0.1-15.9-0.1c-1,0-2.2-1.2-2.9-2.2
			c-2.1-3.2-4-6.5-6.1-10c-4.3,2.6-8.3,5.4-12.6,7.3c-6.7,3-13.7,5.3-20.5,7.9C970.7,354,964.3,354,958,354z M1008.2,228.1
			c-13.5,0-26.5-0.5-39.4,0.1c-11.6,0.5-19.4,6.9-22.9,18.2c-6.4,20.4-7.9,41.2-2.8,62c4.6,18.8,17,28.1,36.3,27.3
			c8.4-0.3,16.6-2.8,25-4.3c3.2-0.6,4-2.5,4-5.7c-0.1-24.6-0.1-49.3-0.1-73.9C1008.2,244.4,1008.2,237,1008.2,228.1z"/>
		<path class="st2" d="M1076,354c-1.5-0.6-2.9-1.4-4.4-1.8c-12.2-3.7-19.5-11.9-21.5-24.3c-1-6.2-1.3-12.6-0.7-18.9
			c1.7-16.4,11.5-26.6,27.2-29.7c12.3-2.5,25.1-2.8,37.6-3.9c4-0.3,8-0.1,13.3-0.1c-0.7-12-0.6-23.6-2.2-35
			c-1-7.5-7.6-11.1-16.7-11.3c-12.3-0.2-24,3.4-35.5,7.3c-2.2,0.7-4.3,1.6-6.9,2.6c-1.6-4.1-3.1-8-4.9-12.5
			c22.2-8.6,44-17.3,68.2-13.6c13.3,2,21.3,10.1,23.2,23.7c0.8,5.6,1,11.3,1,16.9c0.1,21,0,42,0.2,63c0,4.3,0.8,8.6,2,12.7
			c1.9,6.3,5.6,8.4,12.1,7.6c3.9-0.5,7.8-1.1,11.8-1.7c0,2.6,0,5.2,0,7.8c-6.5,2.9-12.8,6.5-19.6,8.4c-17.3,4.9-25.8-0.1-30.5-14
			c-0.1-0.2-0.4-0.4-0.7-0.6c0.2,0.4,0.3,0.8,0.5,1.3c-11.9,5.3-23.9,10.6-35.8,15.9C1088,354,1082,354,1076,354z M1127.8,285.6
			c-9.5,0.6-17.5,0.8-25.4,1.8c-5.2,0.6-10.3,2.3-15.5,3.6c-5.3,1.4-9.3,4.7-9.7,10.1c-0.6,7.9-0.9,15.9,0.1,23.7
			c1.1,7.8,6.4,11.7,13.7,12.1c12.2,0.6,23.7-2.4,34.4-8.3c1.1-0.6,2.2-2.2,2.2-3.3C1127.9,312.4,1127.8,299.5,1127.8,285.6z"/>
		<path class="st2" d="M415,354c-0.6-0.4-1.3-1-2-1.1c-20.6-4.4-32.2-18.1-36.9-37.6c-5.5-22.8-5.4-45.7,3.1-67.8
			c13.3-34.4,61.4-47.5,88.7-24.3c12.3,10.5,17.5,24.7,20.2,40.2c0.7,4-2.4,5.7-5,6.5c-8.2,2.5-16.6,5.2-25,6.1
			c-17.5,1.9-35.2,2.8-52.8,4c-1.1,0.1-2.3,0.2-4.9,0.5c1.4,11,1.8,22.1,4.5,32.6c3.6,14.4,14.1,21.7,29,22
			c17.3,0.3,33.5-4.5,49.5-10.4c1.1-0.4,2.1-0.9,3.5-1.4c1.1,2.5,2.2,4.8,3.5,7.5c-16,10.7-32.8,19.1-51.8,22.5
			c-0.9,0.2-1.6,0.7-2.5,1C429,354,422,354,415,354z M458.7,264.6c-2.1-12.1-4.2-23.4-13.2-31.7c-8.5-8-28.1-8-34.8,0.5
			c-7.6,9.7-8.2,21.6-8.9,33.6C421.1,266.2,439.5,265.4,458.7,264.6z"/>
		<path class="st4" d="M1094,354c11.9-5.3,23.9-10.6,35.8-15.9c-0.2-0.4-0.3-0.8-0.5-1.3c0.2,0.2,0.6,0.3,0.7,0.6
			c4.7,13.8,13.3,18.8,30.5,14c6.8-1.9,13.1-5.6,19.6-8.4c0.1,2.6,0.3,5.2,0.4,7.8c9.1,0,17.8,0,26.7,0c0-2.2,0-4,0-5.8
			c0-31,0-61.9,0-92.9c0-1.7,0-4.1,1-5.1c6.3-6.7,13-13,23.5-11.9c6.2,0.7,12.5,0.8,18.7,1.2c1.6-8.1,3.1-15.6,4.6-23.2
			c0,47,0,94,0,141C1201.3,354,1147.7,354,1094,354z"/>
		<path class="st5" d="M1255,213c-1.5,7.6-3,15.2-4.6,23.2c-6.2-0.4-12.5-0.6-18.7-1.2c-10.5-1.1-17.1,5.1-23.5,11.9
			c-1,1.1-1,3.4-1,5.1c-0.1,31,0,61.9,0,92.9c0,1.8,0,3.6,0,5.8c-8.9,0-17.6,0-26.7,0c-0.1-2.6-0.3-5.2-0.4-7.8c0-2.6,0-5.2,0-7.8
			c0.1-32.3,0.1-64.5,0.2-96.8c0-7.6,0-15.2,0-23.1c7.7,0,15,0,22.6,0c1.2,6.5,2.4,13.1,3.8,20.4c1.2-1.1,2.2-1.7,2.7-2.6
			c10.6-17.1,26.6-22.5,45.7-21.1C1255,212.3,1255,212.7,1255,213z"/>
		<path class="st6" d="M1,283c4.7,15.2,9.4,30.4,14,45.5c1.7,5.7,3.3,11.3,5.2,17.7c-8.8-3.9-14.1-9.9-17.3-17.9
			c-0.6-1.5-1.3-2.9-1.9-4.4C1,310.3,1,296.7,1,283z"/>
		<path class="st7" d="M27,1C19.2,3.8,11.6,7,6.9,14.4C4.7,17.8,3,21.4,1,25C1,17.1,1,9.2,1,1C9.7,1,18.3,1,27,1z"/>
		<path class="st8" d="M126.4,193.2c17.8,51.4,35.7,103.3,53.8,155.6c-35.4,0-70.3,0-105.9,0C91.8,296.6,109.2,244.7,126.4,193.2z"
			/>
		<path class="st4" d="M669.4,251c0-30.2,0-59.8,0-89.6c14.5-1.8,28.7-2.5,42.7,1.7c15.1,4.5,25,15.7,25.8,31.4
			c0.5,11-0.4,22.2-2,33.2c-1.4,9.4-7.8,15.5-17,18.5C702.8,251.2,686.3,251,669.4,251z"/>
		<path class="st4" d="M866.8,286c0,13.4,0.1,26.3-0.1,39.2c0,1.3-1.6,3-3,3.8c-9.8,5.4-20.3,8-31.5,8c-9,0-14.7-3.8-15.9-12.5
			c-1.1-7.6-0.7-15.5-0.1-23.2c0.4-5.4,4.4-8.5,9.6-10.3C838.7,286.6,851.9,286.1,866.8,286z"/>
		<path class="st9" d="M528.3,336.9c0-33.9,0-67.2,0-100.7c12.2-4.6,24.4-7.5,37.5-5.6c12.3,1.9,20.5,8.8,25.3,20.1
			c6.2,14.6,5.9,30,4.3,45.2c-1,9.1-3.8,18.2-6.5,27c-2.5,8.2-8.8,12.5-17.1,14.1C557.4,340,543,339.1,528.3,336.9z"/>
		<path class="st10" d="M1008.2,228.1c0,8.9,0,16.4,0,23.8c0,24.6-0.1,49.3,0.1,73.9c0,3.2-0.7,5.1-4,5.7c-8.3,1.5-16.6,3.9-25,4.3
			c-19.3,0.8-31.7-8.5-36.3-27.3c-5.1-20.8-3.6-41.6,2.8-62c3.6-11.4,11.3-17.7,22.9-18.2C981.7,227.6,994.7,228.1,1008.2,228.1z"/>
		<path class="st4" d="M1127.8,285.6c0,13.9,0.1,26.8-0.1,39.7c0,1.1-1.1,2.7-2.2,3.3c-10.7,5.9-22.2,8.8-34.4,8.3
			c-7.4-0.3-12.7-4.3-13.7-12.1c-1.1-7.8-0.7-15.8-0.1-23.7c0.4-5.4,4.4-8.8,9.7-10.1c5.1-1.3,10.2-3,15.5-3.6
			C1110.4,286.4,1118.3,286.2,1127.8,285.6z"/>
		<path class="st4" d="M458.7,264.6c-19.1,0.8-37.6,1.6-56.8,2.4c0.7-12,1.3-23.9,8.9-33.6c6.6-8.5,26.3-8.5,34.8-0.5
			C454.4,241.2,456.6,252.5,458.7,264.6z"/>
	</g>
</g>
</svg>
